<svg width="1700" height="1296" viewBox="0 0 1700 1296" fill="none" xmlns="http://www.w3.org/2000/svg">
<mask id="mask0_1_119" style="mask-type:alpha" maskUnits="userSpaceOnUse" x="0" y="-3" width="1728" height="1299">
<rect y="-3" width="1728" height="1299" fill="white"/>
</mask>
<g mask="url(#mask0_1_119)">
<path d="M-73.2499 -1379.1C-69.8029 -1381.09 -65.5813 -1381.15 -62.0859 -1379.29L-61.7499 -1379.1L752.871 -908.781C756.429 -906.727 758.621 -902.931 758.621 -898.822V41.8223C758.621 45.8021 756.564 49.4889 753.201 51.583L752.871 51.7812L-61.7499 522.103C-65.1969 524.093 -69.4186 524.155 -72.914 522.289L-73.2499 522.103L-887.871 51.7812C-891.429 49.7271 -893.621 45.9307 -893.621 41.8223V-898.821C-893.621 -902.801 -891.564 -906.489 -888.201 -908.583L-887.871 -908.781L-73.2499 -1379.1Z" stroke="#7F7F7F" stroke-opacity="0.2"/>
<path d="M1959.5 251.464C1963.21 249.321 1967.79 249.321 1971.5 251.464L2575.68 600.286C2579.39 602.429 2581.68 606.391 2581.68 610.678V1308.32C2581.68 1312.61 2579.39 1316.57 2575.68 1318.71L1971.5 1667.54C1967.79 1669.68 1963.21 1669.68 1959.5 1667.54L1355.32 1318.71C1351.61 1316.57 1349.32 1312.61 1349.32 1308.32V610.678C1349.32 606.391 1351.61 602.43 1355.32 600.286L1959.5 251.464Z" fill="#D9D9D9" fill-opacity="0.05"/>
<path d="M1959.75 251.897C1963.2 249.907 1967.42 249.845 1970.91 251.711L1971.25 251.897L2575.43 600.719C2578.98 602.773 2581.18 606.569 2581.18 610.678V1308.32C2581.18 1312.3 2579.12 1315.99 2575.76 1318.08L2575.43 1318.28L1971.25 1667.1C1967.8 1669.09 1963.58 1669.15 1960.09 1667.29L1959.75 1667.1L1355.57 1318.28C1352.02 1316.23 1349.82 1312.43 1349.82 1308.32V610.679C1349.82 606.699 1351.88 603.011 1355.24 600.917L1355.57 600.719L1959.75 251.897Z" stroke="white" stroke-opacity="0.1"/>
</g>
</svg>
