<svg width="1700" height="1353" viewBox="0 0 1700 1353" fill="none" xmlns="http://www.w3.org/2000/svg">
<rect width="1728" height="938" fill="#060E0A"/>
<path d="M-305.5 3.46411C-301.787 1.32052 -297.213 1.32051 -293.5 3.4641L310.677 352.286C314.39 354.429 316.677 358.391 316.677 362.678V1060.32C316.677 1064.61 314.39 1068.57 310.677 1070.71L-293.5 1419.54C-297.213 1421.68 -301.787 1421.68 -305.5 1419.54L-909.677 1070.71C-913.39 1068.57 -915.677 1064.61 -915.677 1060.32V362.678C-915.677 358.391 -913.39 354.43 -909.677 352.286L-305.5 3.46411Z" fill="#D9D9D9" fill-opacity="0.03"/>
<path d="M-305.25 3.89746C-301.803 1.90735 -297.581 1.84515 -294.086 3.71094L-293.75 3.89746L310.427 352.719C313.985 354.773 316.177 358.569 316.177 362.678V1060.32C316.177 1064.3 314.12 1067.99 310.757 1070.08L310.427 1070.28L-293.75 1419.1C-297.197 1421.09 -301.419 1421.15 -304.914 1419.29L-305.25 1419.1L-909.427 1070.28C-912.985 1068.23 -915.177 1064.43 -915.177 1060.32V362.679C-915.177 358.699 -913.12 355.011 -909.757 352.917L-909.427 352.719L-305.25 3.89746Z" stroke="#7F7F7F" stroke-opacity="0.1"/>
<path d="M1844.5 459.464C1848.21 457.321 1852.79 457.321 1856.5 459.464L2460.68 808.286C2464.39 810.429 2466.68 814.391 2466.68 818.678V1516.32C2466.68 1520.61 2464.39 1524.57 2460.68 1526.71L1856.5 1875.54C1852.79 1877.68 1848.21 1877.68 1844.5 1875.54L1240.32 1526.71C1236.61 1524.57 1234.32 1520.61 1234.32 1516.32V818.678C1234.32 814.391 1236.61 810.43 1240.32 808.286L1844.5 459.464Z" fill="#D9D9D9" fill-opacity="0.02"/>
<path d="M1844.75 459.897C1848.2 457.907 1852.42 457.845 1855.91 459.711L1856.25 459.897L2460.43 808.719C2463.98 810.773 2466.18 814.569 2466.18 818.678V1516.32C2466.18 1520.3 2464.12 1523.99 2460.76 1526.08L2460.43 1526.28L1856.25 1875.1C1852.8 1877.09 1848.58 1877.15 1845.09 1875.29L1844.75 1875.1L1240.57 1526.28C1237.02 1524.23 1234.82 1520.43 1234.82 1516.32V818.679C1234.82 814.699 1236.88 811.011 1240.24 808.917L1240.57 808.719L1844.75 459.897Z" stroke="white" stroke-opacity="0.2"/>
<path d="M2157.75 31.8975C2161.2 29.9074 2165.42 29.8451 2168.91 31.7109L2169.25 31.8975L2773.43 380.719C2776.98 382.773 2779.18 386.569 2779.18 390.678V1088.32C2779.18 1092.3 2777.12 1095.99 2773.76 1098.08L2773.43 1098.28L2169.25 1447.1C2165.8 1449.09 2161.58 1449.15 2158.09 1447.29L2157.75 1447.1L1553.57 1098.28C1550.02 1096.23 1547.82 1092.43 1547.82 1088.32V390.679C1547.82 386.699 1549.88 383.011 1553.24 380.917L1553.57 380.719L2157.75 31.8975Z" stroke="white" stroke-opacity="0.15"/>
</svg>
