<svg width="30" height="24" viewBox="0 0 30 24" fill="none" xmlns="http://www.w3.org/2000/svg">
<path fill-rule="evenodd" clip-rule="evenodd" d="M16.034 3C13.1776 3 10.6877 4.82317 9.63268 7.33156C9.4322 7.8082 9.00036 8.14798 8.48993 8.23069C5.16781 8.76899 3 11.5344 3 14.474C3 18.0652 5.94192 21 9.6 21H21.75C24.6485 21 27 18.6484 27 15.7453C27 13.5478 25.6655 11.5436 23.8491 10.7494C23.3315 10.523 22.9849 10.0251 22.9525 9.46109C22.746 5.87001 19.7375 3 16.034 3ZM7.21338 5.43161C8.85565 2.2756 12.1712 0 16.034 0C21.0133 0 25.1515 3.64343 25.8576 8.41184C28.3605 9.87863 30 12.7175 30 15.7453C30 20.3033 26.3074 24 21.75 24H9.6C4.31106 24 0 19.748 0 14.474C0 10.3156 2.87641 6.50041 7.21338 5.43161ZM13.9393 7.18934C14.5251 6.60355 15.4749 6.60355 16.0607 7.18934L19.0607 10.1893C19.6464 10.7751 19.6464 11.7249 19.0607 12.3107C18.4749 12.8964 17.5251 12.8964 16.9393 12.3107L16.5 11.8713V17.25C16.5 18.0784 15.8284 18.75 15 18.75C14.1716 18.75 13.5 18.0784 13.5 17.25V11.8713L13.0607 12.3107C12.4749 12.8964 11.5251 12.8964 10.9393 12.3107C10.3536 11.7249 10.3536 10.7751 10.9393 10.1893L13.9393 7.18934Z" fill="white"/>
</svg>
