<svg width="29" height="34" viewBox="0 0 29 34" fill="none" xmlns="http://www.w3.org/2000/svg">
<path fill-rule="evenodd" clip-rule="evenodd" d="M26.0187 13.5304L28.7156 19.2468C28.9761 19.8005 28.7431 20.462 28.1926 20.7296L26.1347 21.729C25.7501 21.9163 25.5048 22.3071 25.5048 22.7345V26.096C25.5048 26.7127 25.0051 27.2145 24.3874 27.2145H18.8673C18.2496 27.2145 17.7488 27.7152 17.7488 28.3329V32.2307C17.7488 32.6053 17.5605 32.9554 17.2481 33.163C16.9346 33.3696 16.5387 33.4062 16.1948 33.2597L5.41419 28.6861C5.00203 28.512 4.73336 28.106 4.73336 27.6572V23.0561C1.84307 20.6686 0 17.0578 0 13.0154C0 5.8274 5.82844 0 13.0165 0C20.2045 0 26.0319 5.8274 26.0319 13.0154C26.0319 13.1874 26.0258 13.3594 26.0187 13.5304ZM4.16546 13.0154C4.16546 17.9045 8.12842 21.8664 13.0165 21.8664C17.9045 21.8664 21.8664 17.9045 21.8664 13.0154C21.8664 8.12738 17.9045 4.16546 13.0165 4.16546C8.12842 4.16546 4.16546 8.12738 4.16546 13.0154ZM19.6808 13.6526C19.6808 13.8928 19.4976 14.0913 19.2584 14.1096L17.8103 14.2225C17.7197 14.2297 17.6393 14.2877 17.6047 14.3732L17.1274 15.5232C17.0928 15.6066 17.1081 15.7053 17.1671 15.7745L18.1115 16.8798C18.2673 17.0609 18.257 17.3316 18.0871 17.5006L17.3147 18.273C17.1447 18.443 16.874 18.4531 16.6929 18.2984L15.5886 17.353C15.5195 17.2949 15.4207 17.2787 15.3373 17.3143L14.1873 17.7906C14.1018 17.8252 14.0438 17.9056 14.0367 17.9962L13.9247 19.4454C13.9053 19.6835 13.7059 19.8677 13.4667 19.8677H12.3737C12.1346 19.8677 11.9351 19.6835 11.9168 19.4454L11.8048 17.9962C11.7977 17.9056 11.7387 17.8252 11.6532 17.7906L10.5042 17.3143C10.4187 17.2787 10.322 17.2949 10.2518 17.353L9.14757 18.2984C8.96539 18.4531 8.6947 18.4429 8.52574 18.273L7.75333 17.5006C7.58437 17.3317 7.57317 17.0609 7.7289 16.8798L8.67333 15.7745C8.73234 15.7054 8.74863 15.6066 8.713 15.5232L8.23668 14.3732C8.20203 14.2877 8.12061 14.2296 8.02903 14.2225L6.58086 14.1096C6.34274 14.0912 6.15952 13.8928 6.15952 13.6526V12.5606C6.15952 12.3205 6.34274 12.122 6.58086 12.1027L8.02903 11.9897C8.12068 11.9836 8.20209 11.9256 8.23668 11.8401L8.713 10.6901C8.74863 10.6056 8.73234 10.5079 8.67333 10.4377L7.7289 9.33352C7.57317 9.15239 7.58437 8.88169 7.75333 8.71274L8.52574 7.93928C8.6947 7.77033 8.96539 7.76017 9.14757 7.91486L10.2518 8.85929C10.322 8.9183 10.4186 8.93458 10.5042 8.9L11.6532 8.4227C11.7386 8.38811 11.7977 8.30767 11.8048 8.2161L11.9168 6.7689C11.9351 6.52876 12.1346 6.34554 12.3737 6.34554H13.4667C13.7059 6.34554 13.9053 6.52869 13.9247 6.7689L14.0367 8.2161C14.0438 8.30767 14.1018 8.38811 14.1873 8.4227L15.3373 8.9C15.4207 8.93458 15.5194 8.9183 15.5886 8.85929L16.6929 7.91486C16.874 7.76017 17.1447 7.77033 17.3147 7.93928L18.0871 8.71274C18.257 8.88163 18.2673 9.15239 18.1115 9.33352L17.1671 10.4377C17.1081 10.5079 17.0928 10.6056 17.1274 10.6901L17.6047 11.8401C17.6393 11.9256 17.7197 11.9836 17.8103 11.9897L19.2584 12.1027C19.4976 12.122 19.6808 12.3204 19.6808 12.5606V13.6526ZM11.304 14.7223C11.7355 15.1538 12.3095 15.3919 12.9201 15.3919C13.5308 15.3919 14.1048 15.1538 14.5363 14.7223C14.9678 14.2908 15.2049 13.7168 15.2049 13.1072C15.2049 12.4966 14.9678 11.9226 14.5363 11.4911C14.1048 11.0586 13.5308 10.8214 12.9201 10.8214C12.3095 10.8214 11.7355 11.0585 11.304 11.4911C10.8725 11.9226 10.6353 12.4966 10.6353 13.1072C10.6353 13.7168 10.8725 14.2908 11.304 14.7223Z" fill="white"/>
</svg>
