<svg width="62" height="62" viewBox="0 0 62 62" fill="none" xmlns="http://www.w3.org/2000/svg">
<path d="M56.7842 16.1123V45.8867L31 60.7725L5.21582 45.8867V16.1123L31 1.22656L56.7842 16.1123Z" fill="#1F3429" stroke="#23382C" stroke-width="2.1245"/>
<path fill-rule="evenodd" clip-rule="evenodd" d="M43 41H38.4V32.9511C38.4 30.7431 37.426 29.5112 35.6791 29.5112C33.7782 29.5112 32.65 30.7949 32.65 32.9511V41H28.05V26.05H32.65V27.7312C32.65 27.7312 34.0932 25.1987 37.3454 25.1987C40.5988 25.1987 43 27.184 43 31.2918V41ZM22.8083 23.659C21.257 23.659 20 22.3918 20 20.829C20 19.2673 21.257 18 22.8083 18C24.3585 18 25.6154 19.2673 25.6154 20.829C25.6166 22.3918 24.3585 23.659 22.8083 23.659ZM20 41H25.75V26.05H20V41Z" fill="white"/>
</svg>
