<svg width="56" height="56" viewBox="0 0 56 56" fill="none" xmlns="http://www.w3.org/2000/svg">
<circle cx="28" cy="28" r="28" fill="#23382C"/>
<path fill-rule="evenodd" clip-rule="evenodd" d="M38.9565 36.5217H34.5739V28.8532C34.5739 26.7495 33.6459 25.5759 31.9816 25.5759C30.1705 25.5759 29.0957 26.7988 29.0957 28.8532V36.5217H24.7131V22.2782H29.0957V23.88C29.0957 23.88 30.4707 21.4672 33.5692 21.4672C36.6688 21.4672 38.9565 23.3586 38.9565 27.2723V36.5217ZM19.7191 20.0002C18.241 20.0002 17.0435 18.7929 17.0435 17.3039C17.0435 15.816 18.241 14.6086 19.7191 14.6086C21.196 14.6086 22.3936 15.816 22.3936 17.3039C22.3946 18.7929 21.196 20.0002 19.7191 20.0002ZM17.0435 36.5217H22.5217V22.2782H17.0435V36.5217Z" fill="white"/>
</svg>
