<svg width="62" height="62" viewBox="0 0 62 62" fill="none" xmlns="http://www.w3.org/2000/svg">
<path d="M56.7842 16.1123V45.8867L31 60.7725L5.21582 45.8867V16.1123L31 1.22656L56.7842 16.1123Z" fill="#1F3429" stroke="#23382C" stroke-width="2.1245"/>
<path fill-rule="evenodd" clip-rule="evenodd" d="M43.75 37.6667C43.75 37.8358 43.7159 37.9958 43.6669 38.1483L35.875 30.1667L43.75 24.3333V37.6667ZM20.6115 39.2883L28.5075 31.275L31.5 33.4292L34.363 31.2617L42.3885 39.2883C42.2634 39.3158 20.7366 39.3158 20.6115 39.2883ZM19.25 37.6667V24.3333L27.125 30.1667L19.3331 38.1483C19.2841 37.9958 19.25 37.8358 19.25 37.6667ZM42.875 22.6667L31.5 31L20.125 22.6667H42.875ZM42 21H21C19.0671 21 17.5 22.4925 17.5 24.3333V37.6667C17.5 39.5075 19.0671 41 21 41H42C43.9329 41 45.5 39.5075 45.5 37.6667V24.3333C45.5 22.4925 43.9329 21 42 21Z" fill="white"/>
</svg>
