<svg width="271" height="164" viewBox="0 0 271 164" fill="none" xmlns="http://www.w3.org/2000/svg">
<rect x="1" y="1" width="269" height="162" rx="5" fill="white" stroke="#F5A31F" stroke-width="2"/>
<ellipse cx="100.341" cy="83" rx="41.3409" ry="42" fill="#575757"/>
<path d="M102.133 59C105.746 59 108.825 59.6549 111.368 60.9639C113.91 62.2277 115.806 63.9653 117.055 66.1768C118.349 68.3433 118.996 70.7811 118.996 73.4893C118.996 76.6035 118.103 79.4246 116.319 81.9521C114.535 84.4345 111.88 86.1498 108.356 87.0977L119.532 106.259H108.691L98.3855 87.8428H94.073V80.7334H101.799C104.341 80.7333 106.237 80.1238 107.486 78.9053C108.735 77.6415 109.36 75.9038 109.36 73.6924C109.36 71.5259 108.735 69.8552 107.486 68.6816C106.237 67.4632 104.341 66.8536 101.799 66.8535H94.073V59H102.133ZM85.9119 79.8369C88.6161 79.8369 90.8084 82.055 90.8084 84.791C90.8083 87.527 88.6161 89.7451 85.9119 89.7451C83.2077 89.7451 81.0155 87.527 81.0154 84.791C81.0154 82.055 83.2077 79.8369 85.9119 79.8369Z" fill="white"/>
<path d="M196.996 68.9504C195.521 68.9504 194.286 68.4847 193.289 67.5534C192.333 66.5817 191.855 65.3872 191.855 63.97C191.855 62.5528 192.333 61.3786 193.289 60.4473C194.286 59.4755 195.521 58.9896 196.996 58.9896C198.471 58.9896 199.686 59.4755 200.643 60.4473C201.639 61.3786 202.137 62.5528 202.137 63.97C202.137 65.3872 201.639 66.5817 200.643 67.5534C199.686 68.4847 198.471 68.9504 196.996 68.9504ZM201.121 72.959V106.607H192.751V72.959H201.121Z" fill="#7E7E7E"/>
<path d="M178.964 106.607L169.757 90.0866H165.811V106.607H157.442V64.2129H173.105C176.333 64.2129 179.083 64.8 181.355 65.9743C183.627 67.108 185.321 68.6669 186.437 70.651C187.592 72.5945 188.17 74.781 188.17 77.2105C188.17 80.0043 187.373 82.535 185.779 84.8025C184.185 87.0295 181.813 88.5681 178.665 89.4185L188.649 106.607H178.964ZM165.811 83.7092H172.806C175.078 83.7092 176.772 83.1626 177.888 82.0694C179.004 80.9356 179.562 79.3767 179.562 77.3927C179.562 75.4491 179.004 73.951 177.888 72.8982C176.772 71.8049 175.078 71.2583 172.806 71.2583H165.811V83.7092Z" fill="#7E7E7E"/>
</svg>
