<svg width="271" height="164" viewBox="0 0 271 164" fill="none" xmlns="http://www.w3.org/2000/svg">
<rect x="1" y="1" width="269" height="162" rx="5" fill="white" stroke="#F5A31F" stroke-width="2"/>
<path fill-rule="evenodd" clip-rule="evenodd" d="M39.3755 74.9488C39.1286 76.3866 39 78.43 39 79.936C39 81.6801 39.836 82.8184 40.165 84.4689C40.6006 86.6535 40.3818 88.7429 41.3301 90.7016C43.6602 94.1012 45.9902 100.328 49.4854 100.328C52.1264 102.345 51.4344 103.899 54.728 104.867C57.2372 105.604 63.6221 106 66.3785 106C69.635 106 72.2075 104.143 75.1162 103.167C78.4166 102.059 83.1473 103.065 85.6016 100.901C86.5139 100.096 84.2638 96.1647 85.0191 95.2344C86.8889 92.9315 90.1686 91.9595 90.8443 89.0018C93.1744 86.1687 92.5918 82.6717 92.5918 79.3694C91.8128 74.8231 92.9956 69.0485 90.8443 64.6376C89.7782 62.4518 85.6016 61.8046 84.5057 59.4116L53.9073 89.0018L39.3755 74.9488Z" fill="#393939"/>
<path d="M64.4695 58C68.9694 58 73.0916 59.6143 76.2907 62.2939L54.4011 84.0537L46.0612 75.7637C46.4056 65.8948 54.5149 58 64.4695 58Z" fill="#7E7E7E"/>
<path d="M219.787 98.8455C221.388 98.8455 222.745 98.6898 223.857 98.3784C225.014 98.0226 225.859 97.6667 226.393 97.3109V88.7036L218.919 89.4375C216.872 89.6155 215.338 90.0825 214.314 90.8387C213.291 91.5949 212.779 92.6847 212.779 94.1082C212.779 95.5761 213.358 96.7326 214.515 97.5778C215.671 98.4229 217.429 98.8455 219.787 98.8455ZM219.586 71.0887C223.679 71.0887 226.927 71.9783 229.33 73.7576C231.777 75.5369 233 78.3615 233 82.2314V97.8446C233 98.8677 232.778 99.6684 232.333 100.247C231.888 100.78 231.287 101.292 230.531 101.781C229.374 102.404 227.861 102.938 225.993 103.383C224.169 103.872 222.1 104.117 219.787 104.117C215.471 104.117 212.09 103.294 209.643 101.648C207.24 99.9575 206.039 97.4888 206.039 94.2416C206.039 91.3058 206.996 89.0594 208.909 87.5026C210.822 85.9457 213.536 84.9893 217.05 84.6335L226.393 83.6993V82.1647C226.393 80.163 225.748 78.7174 224.458 77.8277C223.168 76.8936 221.41 76.4265 219.186 76.4265C217.406 76.4265 215.671 76.6712 213.981 77.1605C212.334 77.6498 210.866 78.2281 209.576 78.8953C209.176 78.5394 208.82 78.1168 208.508 77.6275C208.197 77.0938 208.041 76.56 208.041 76.0262C208.041 74.6028 208.798 73.5574 210.31 72.8902C211.511 72.3119 212.913 71.8671 214.515 71.5557C216.161 71.2444 217.851 71.0887 219.586 71.0887Z" fill="#4F4F4F"/>
<path d="M182.414 86.301L197.562 71.4218C198.942 71.4218 200.009 71.7332 200.766 72.3559C201.566 72.9342 201.967 73.7126 201.967 74.6912C201.967 75.4919 201.7 76.2036 201.166 76.8264C200.677 77.4046 199.92 78.1163 198.897 78.9615L186.885 89.5037L182.414 86.301ZM187.419 84.6997L203.702 99.6457C203.613 100.891 203.235 101.87 202.567 102.581C201.945 103.293 201.077 103.649 199.965 103.649C199.119 103.649 198.341 103.427 197.629 102.982C196.962 102.537 196.25 101.892 195.494 101.047L182.414 87.3686L187.419 84.6997ZM183.682 85.9674V103.049C183.415 103.137 182.992 103.249 182.414 103.382C181.88 103.516 181.279 103.582 180.612 103.582C179.366 103.582 178.432 103.36 177.809 102.915C177.186 102.426 176.875 101.603 176.875 100.446V85.3669L183.682 85.9674ZM176.875 88.7698V59.8787C177.186 59.7897 177.631 59.7008 178.209 59.6118C178.788 59.4783 179.41 59.4116 180.078 59.4116C181.324 59.4116 182.236 59.634 182.814 60.0789C183.392 60.5237 183.682 61.3243 183.682 62.4809V89.3703L176.875 88.7698Z" fill="#4F4F4F"/>
<path d="M171.166 87.5693C171.166 90.9499 170.521 93.8857 169.231 96.3767C167.941 98.8233 166.117 100.736 163.759 102.115C161.401 103.449 158.642 104.117 155.484 104.117C152.28 104.117 149.5 103.449 147.142 102.115C144.784 100.736 142.96 98.8233 141.67 96.3767C140.379 93.8857 139.734 90.9499 139.734 87.5693C139.734 84.1887 140.379 81.2751 141.67 78.8286C143.004 76.3376 144.851 74.4248 147.209 73.0904C149.566 71.7559 152.325 71.0887 155.484 71.0887C158.598 71.0887 161.334 71.7782 163.692 73.1571C166.05 74.4916 167.874 76.3821 169.164 78.8286C170.499 81.2751 171.166 84.1887 171.166 87.5693ZM155.484 76.56C152.77 76.56 150.612 77.5386 149.01 79.4958C147.453 81.453 146.675 84.1442 146.675 87.5693C146.675 91.0834 147.431 93.819 148.944 95.7762C150.501 97.689 152.681 98.6453 155.484 98.6453C158.242 98.6453 160.378 97.6667 161.89 95.7095C163.447 93.7523 164.226 91.0389 164.226 87.5693C164.226 84.1442 163.447 81.453 161.89 79.4958C160.333 77.5386 158.198 76.56 155.484 76.56Z" fill="#4F4F4F"/>
<path d="M118.912 82.8317C121.848 82.8317 124.162 82.1867 125.852 80.8968C127.587 79.6068 128.455 77.694 128.455 75.1586C128.455 72.6231 127.565 70.7104 125.786 69.4204C124.05 68.1304 121.515 67.4854 118.178 67.4854C117.155 67.4854 116.109 67.5521 115.041 67.6856C114.018 67.7745 113.084 67.8857 112.238 68.0192V82.8317H118.912ZM105.365 88.3697V65.8173C105.365 65.0167 105.565 64.4161 105.965 64.0158C106.41 63.6155 107.011 63.2819 107.767 63.015C109.102 62.6146 110.726 62.3255 112.639 62.1476C114.552 61.9252 116.465 61.8139 118.378 61.8139C124.073 61.8139 128.344 62.9927 131.191 65.3503C134.038 67.7078 135.462 70.955 135.462 75.0918C135.462 77.7608 134.817 80.0961 133.527 82.0978C132.237 84.055 130.39 85.5896 127.988 86.7017C125.585 87.8137 122.649 88.3697 119.179 88.3697H105.365ZM124.251 84.4331C125.452 85.901 126.675 87.4356 127.921 89.037C129.211 90.6383 130.435 92.1952 131.592 93.7076C132.748 95.22 133.794 96.5767 134.728 97.7777C135.662 98.9787 136.374 99.9351 136.864 100.647C136.641 101.581 136.152 102.337 135.395 102.915C134.639 103.449 133.86 103.716 133.06 103.716C132.036 103.716 131.213 103.471 130.59 102.982C129.968 102.493 129.345 101.803 128.722 100.914L118.712 86.4348L124.251 84.4331ZM112.372 86.1679V103.049C112.016 103.138 111.549 103.249 110.97 103.382C110.392 103.516 109.769 103.583 109.102 103.583C107.812 103.583 106.855 103.338 106.232 102.849C105.654 102.315 105.365 101.492 105.365 100.38V86.1679H112.372Z" fill="#4F4F4F"/>
</svg>
