<svg width="31" height="31" viewBox="0 0 31 31" fill="none" xmlns="http://www.w3.org/2000/svg">
<path d="M2.07909 18.0859C2.66839 17.9281 3.29378 17.9697 3.85741 18.2031C4.42091 18.4366 4.89126 18.8497 5.19628 19.3779H11.0869V25.2676C11.6152 25.5726 12.0282 26.0438 12.2617 26.6074C12.4952 27.1712 12.5358 27.7964 12.3779 28.3857C12.22 28.975 11.8726 29.4958 11.3887 29.8672C10.9046 30.2386 10.3113 30.4404 9.70116 30.4404C9.09099 30.4404 8.49775 30.2386 8.01366 29.8672C7.52964 29.4957 7.18134 28.9751 7.02343 28.3857C6.86555 27.7964 6.90714 27.1711 7.14062 26.6074C7.37415 26.0439 7.78713 25.5726 8.31542 25.2676V22.1494H5.19628C4.89128 22.6777 4.42093 23.0907 3.85741 23.3242C3.29377 23.5577 2.6684 23.5993 2.07909 23.4414C1.4898 23.2835 0.969089 22.9351 0.597649 22.4512C0.226198 21.9671 0.0244068 21.3738 0.0244068 20.7637C0.0244266 20.1535 0.226217 19.5602 0.597649 19.0762C0.969083 18.5923 1.48984 18.2438 2.07909 18.0859ZM27.7187 17.9922C28.2042 17.9966 28.6802 18.128 29.0986 18.374C29.5171 18.6201 29.8636 18.9725 30.1035 19.3945C30.3433 19.8165 30.4685 20.294 30.4658 20.7793C30.4631 21.2647 30.3324 21.7408 30.0879 22.1602C29.8433 22.5795 29.4925 22.9276 29.0713 23.1689C28.6501 23.4102 28.1729 23.5362 27.6875 23.5352C27.202 23.5341 26.7249 23.4063 26.3047 23.1631C25.8846 22.9199 25.5357 22.5698 25.293 22.1494H22.1748V25.2686C22.703 25.5736 23.1161 26.0439 23.3496 26.6074C23.5831 27.171 23.6246 27.7965 23.4668 28.3857C23.3089 28.975 22.9605 29.4958 22.4766 29.8672C21.9925 30.2386 21.3992 30.4404 20.7891 30.4404C20.1789 30.4404 19.5856 30.2386 19.1016 29.8672C18.6176 29.4957 18.2692 28.975 18.1113 28.3857C17.9535 27.7964 17.995 27.1711 18.2285 26.6074C18.462 26.0439 18.875 25.5736 19.4033 25.2686V19.3779H25.293C25.5383 18.953 25.8923 18.6009 26.3184 18.3574C26.7445 18.1139 27.228 17.9878 27.7187 17.9922ZM10.2314 26.4131C9.97821 26.3082 9.69948 26.2805 9.43066 26.334C9.16185 26.3875 8.91451 26.5191 8.7207 26.7129C8.5269 26.9067 8.39528 27.1541 8.34179 27.4229C8.28831 27.6917 8.31599 27.9704 8.42089 28.2236C8.52575 28.4768 8.70288 28.6934 8.93066 28.8457C9.15857 28.998 9.42706 29.0791 9.70116 29.0791C10.0687 29.0791 10.4208 28.9327 10.6807 28.6729C10.9405 28.413 11.0869 28.0609 11.0869 27.6934C11.0869 27.4194 11.0056 27.1517 10.8535 26.9238C10.7012 26.696 10.4846 26.518 10.2314 26.4131ZM21.3193 26.4131C21.0661 26.3082 20.7874 26.2805 20.5185 26.334C20.2497 26.3875 20.0024 26.52 19.8086 26.7139C19.615 26.9076 19.4831 27.1543 19.4297 27.4229C19.3762 27.6917 19.4039 27.9704 19.5088 28.2236C19.6136 28.4767 19.7908 28.6934 20.0185 28.8457C20.2465 28.998 20.5149 29.0791 20.7891 29.0791C21.1564 29.0791 21.5087 28.9335 21.7685 28.6738C22.0285 28.4139 22.1748 28.0609 22.1748 27.6934C22.1748 27.4194 22.0935 27.1517 21.9414 26.9238C21.7891 26.6959 21.5726 26.518 21.3193 26.4131ZM15.2451 24.9219C16.0104 24.922 16.6309 25.5423 16.6309 26.3076C16.6308 27.0729 16.0104 27.6933 15.2451 27.6934C14.4797 27.6934 13.8594 27.073 13.8594 26.3076C13.8594 25.5422 14.4797 24.9219 15.2451 24.9219ZM3.30175 19.4834C3.04851 19.3785 2.76981 19.3508 2.50097 19.4043C2.23214 19.4578 1.98482 19.5904 1.79101 19.7842C1.59746 19.9779 1.46557 20.2246 1.4121 20.4932C1.35863 20.762 1.38634 21.0407 1.4912 21.2939C1.59604 21.5471 1.77323 21.7637 2.00097 21.916C2.22888 22.0683 2.49737 22.1494 2.77148 22.1494C3.13883 22.1494 3.49111 22.0038 3.75097 21.7441C4.01088 21.4842 4.15722 21.1312 4.15722 20.7637C4.1572 20.4897 4.07597 20.222 3.92382 19.9941C3.77153 19.7662 3.55499 19.5883 3.30175 19.4834ZM15.2451 19.3779C16.0104 19.378 16.6308 19.9983 16.6309 20.7637C16.6309 21.529 16.0104 22.1493 15.2451 22.1494C14.4797 22.1494 13.8594 21.5291 13.8594 20.7637C13.8594 19.9983 14.4797 19.3779 15.2451 19.3779ZM28.249 19.4834C27.9958 19.3785 27.717 19.3509 27.4482 19.4043C27.1794 19.4578 26.9321 19.5904 26.7383 19.7842C26.5447 19.9779 26.4129 20.2246 26.3594 20.4932C26.3059 20.762 26.3336 21.0407 26.4385 21.2939C26.5433 21.5471 26.7205 21.7637 26.9482 21.916C27.1761 22.0683 27.4446 22.1494 27.7187 22.1494C28.0861 22.1494 28.4384 22.0038 28.6982 21.7441C28.9581 21.4842 29.1045 21.1312 29.1045 20.7637C29.1044 20.4897 29.0232 20.2219 28.8711 19.9941C28.7188 19.7662 28.5022 19.5883 28.249 19.4834ZM4.1582 13.834C4.92331 13.8342 5.54373 14.4546 5.54394 15.2197C5.54394 15.985 4.92344 16.6062 4.1582 16.6064C3.39278 16.6064 2.77148 15.9851 2.77148 15.2197C2.77168 14.4545 3.3929 13.834 4.1582 13.834ZM9.70116 13.834C10.4665 13.834 11.0877 14.4545 11.0879 15.2197C11.0879 15.9851 10.4666 16.6064 9.70116 16.6064C8.93596 16.6062 8.31542 15.985 8.31542 15.2197C8.31563 14.4546 8.93609 13.8342 9.70116 13.834ZM15.2451 13.834C16.0103 13.8341 16.6306 14.4546 16.6309 15.2197C16.6309 15.9851 16.0104 16.6063 15.2451 16.6064C14.4797 16.6064 13.8594 15.9851 13.8594 15.2197C13.8596 14.4545 14.4798 13.834 15.2451 13.834ZM23.333 13.834C24.0983 13.834 24.7185 14.4545 24.7187 15.2197C24.7187 15.9851 24.0984 16.6064 23.333 16.6064C22.7629 16.6064 22.2733 16.2616 22.0605 15.7695C21.8477 16.2613 21.3591 16.6064 20.7891 16.6064C20.0238 16.6063 19.4033 15.985 19.4033 15.2197C19.4035 14.4546 20.0239 13.8341 20.7891 13.834C21.3588 13.834 21.8475 14.1785 22.0605 14.6699C22.2734 14.1782 22.7631 13.8341 23.333 13.834ZM9.70214 0C10.3121 8.53579e-05 10.9047 0.201918 11.3887 0.573242C11.8727 0.944693 12.221 1.4653 12.3789 2.05469C12.5368 2.64403 12.4962 3.26933 12.2627 3.83301C12.0292 4.39647 11.616 4.86684 11.0879 5.17188V11.0625H5.19726C4.89802 11.6036 4.42633 12.0292 3.85741 12.2715C3.28852 12.5136 2.65503 12.5587 2.05761 12.3994C1.46027 12.2401 0.933301 11.8858 0.56054 11.3926C0.187795 10.8992 -0.00992556 10.295 -7.2839e-06 9.67676C-0.00997066 9.05845 0.187756 8.45433 0.56054 7.96094C0.933291 7.46766 1.46021 7.11344 2.05761 6.9541C2.65508 6.79478 3.28849 6.83981 3.85741 7.08203C4.42637 7.3243 4.89803 7.74984 5.19726 8.29102H8.31542V5.17188C7.78732 4.86682 7.37406 4.39645 7.14062 3.83301C6.90714 3.26934 6.86654 2.64401 7.02441 2.05469C7.18233 1.46532 7.53057 0.944691 8.01464 0.573242C8.49872 0.201792 9.09197 0 9.70214 0ZM20.7891 0C21.3992 1.63628e-05 21.9925 0.201807 22.4766 0.573242C22.9605 0.944676 23.3089 1.46544 23.4668 2.05469C23.6246 2.64397 23.5831 3.26939 23.3496 3.83301C23.1161 4.39649 22.703 4.86687 22.1748 5.17188V8.29102H25.293C25.5383 7.86598 25.8922 7.51303 26.3184 7.26953C26.7445 7.02603 27.228 6.8999 27.7187 6.9043C28.2042 6.9087 28.6802 7.04109 29.0986 7.28711C29.517 7.53315 29.8637 7.88466 30.1035 8.30664C30.3434 8.72871 30.4685 9.2069 30.4658 9.69238C30.463 10.1777 30.3324 10.654 30.0879 11.0732C29.8433 11.4925 29.4925 11.8397 29.0713 12.0811C28.65 12.3224 28.173 12.4493 27.6875 12.4482C27.202 12.4472 26.7249 12.3184 26.3047 12.0752C25.8847 11.832 25.5357 11.4828 25.293 11.0625H19.4033V5.17188C18.875 4.86688 18.462 4.39651 18.2285 3.83301C17.995 3.26938 17.9535 2.64398 18.1113 2.05469C18.2692 1.4654 18.6176 0.94468 19.1016 0.573242C19.5856 0.201792 20.1789 0 20.7891 0ZM3.04296 8.31738C2.77419 8.26392 2.49537 8.29165 2.24218 8.39648C1.98907 8.50132 1.77238 8.67851 1.62011 8.90625C1.46782 9.13416 1.38671 9.40265 1.38671 9.67676C1.38676 10.0441 1.53228 10.3964 1.79198 10.6562C2.05189 10.9162 2.40489 11.0625 2.77245 11.0625C3.04638 11.0624 3.31419 10.9812 3.54198 10.8291C3.76989 10.6768 3.94783 10.4603 4.05273 10.207C4.15761 9.95383 4.18527 9.67505 4.13183 9.40625C4.07835 9.13741 3.94577 8.89011 3.75195 8.69629C3.55826 8.5027 3.31153 8.37089 3.04296 8.31738ZM15.2451 8.29102C16.0104 8.29112 16.6309 8.91141 16.6309 9.67676C16.6307 10.442 16.0104 11.0624 15.2451 11.0625C14.4798 11.0625 13.8595 10.4421 13.8594 9.67676C13.8594 8.91134 14.4797 8.29102 15.2451 8.29102ZM28.249 8.39648C27.9958 8.29159 27.7171 8.26392 27.4482 8.31738C27.1794 8.37086 26.9321 8.50247 26.7383 8.69629C26.5445 8.89011 26.4128 9.13742 26.3594 9.40625C26.3059 9.67507 26.3336 9.95381 26.4385 10.207C26.5434 10.4601 26.7205 10.6769 26.9482 10.8291C27.1761 10.9814 27.4446 11.0625 27.7187 11.0625C28.0862 11.0624 28.4384 10.9161 28.6982 10.6562C28.9581 10.3964 29.1044 10.0442 29.1045 9.67676C29.1045 9.40265 29.0234 9.13416 28.8711 8.90625C28.7188 8.67846 28.5021 8.50137 28.249 8.39648ZM15.2451 2.74707C16.0104 2.74718 16.6309 3.36746 16.6309 4.13281C16.6308 4.89814 16.0104 5.51845 15.2451 5.51855C14.4797 5.51855 13.8594 4.89821 13.8594 4.13281C13.8594 3.36739 14.4797 2.74707 15.2451 2.74707ZM9.97167 1.3877C9.70309 1.33436 9.42488 1.36207 9.17187 1.4668C8.91881 1.57162 8.70207 1.74889 8.5498 1.97656C8.39751 2.20447 8.31542 2.47296 8.31542 2.74707C8.31544 3.11449 8.46194 3.4667 8.72167 3.72656C8.98158 3.98647 9.33457 4.13281 9.70214 4.13281C9.97608 4.13274 10.2439 4.0516 10.4717 3.89941C10.6996 3.74713 10.8775 3.53059 10.9824 3.27734C11.0873 3.02414 11.115 2.74536 11.0615 2.47656C11.008 2.20772 10.8755 1.96043 10.6816 1.7666C10.4878 1.57292 10.2404 1.44115 9.97167 1.3877ZM21.3193 1.4668C21.0661 1.3619 20.7874 1.33422 20.5185 1.3877C20.2497 1.44118 20.0024 1.57279 19.8086 1.7666C19.6148 1.96042 19.4832 2.20773 19.4297 2.47656C19.3762 2.7454 19.4039 3.0241 19.5088 3.27734C19.6136 3.53045 19.7908 3.74716 20.0185 3.89941C20.2465 4.0517 20.5149 4.13281 20.7891 4.13281C21.1566 4.13279 21.5087 3.98644 21.7685 3.72656C22.0284 3.46668 22.1748 3.1146 22.1748 2.74707C22.1748 2.47296 22.0937 2.20447 21.9414 1.97656C21.7891 1.7488 21.5724 1.57166 21.3193 1.4668Z" fill="white"/>
</svg>
