<svg width="271" height="164" viewBox="0 0 271 164" fill="none" xmlns="http://www.w3.org/2000/svg">
<rect x="1" y="1" width="269" height="162" rx="5" fill="white" stroke="#F5A31F" stroke-width="2"/>
<path d="M47.1527 59.8421C41.4587 63.6358 35.7628 67.4276 30.0688 71.2213C29.4569 71.6285 28.83 72.0525 28.4251 72.6651C27.9681 73.3581 27.8449 74.2118 27.7386 75.0355C27.1173 79.8378 26.6397 84.6589 26.3076 89.4911C26.2293 90.6268 26.1733 91.8297 26.7087 92.8327C27.2293 93.8059 28.2162 94.4223 29.1658 94.9845C34.2106 97.9788 39.3822 100.762 44.6602 103.323C45.4083 103.685 46.1825 104.051 47.0146 104.102C47.9829 104.161 48.9195 103.788 49.815 103.414C54.5389 101.446 59.1806 99.2807 63.7273 96.9309C64.647 96.4546 65.5929 95.9465 66.2179 95.1209C66.9213 94.1888 67.1228 92.9822 67.2888 91.8278C68.134 85.9496 68.6433 80.0246 68.8112 74.0885C68.8355 73.2442 68.8448 72.3644 68.4791 71.6042C68.0631 70.7412 67.2291 70.1696 66.4325 69.6373C60.9717 65.9968 55.5109 62.3544 50.0519 58.7139C48.7273 57.8304 46.3486 57.3316 46.0557 58.8988" fill="#B5B5B5"/>
<path d="M27.7666 72.002C30.9027 73.784 34.0408 75.5641 37.177 77.3461C38.6191 78.1661 40.1639 79.0981 40.7665 80.6466C41.2945 82.0046 40.9717 83.5232 40.7852 84.967C40.5986 86.4128 40.6191 88.0547 41.6303 89.1026C42.399 89.8964 43.7161 90.3578 43.8281 91.458C43.9083 92.2462 43.2889 92.9131 42.7087 93.4529C40.5743 95.4366 37.996 97.4408 35.0986 97.1662C33.4456 97.0093 31.9643 96.1202 30.5464 95.2535C29.6266 94.6913 28.6695 94.0917 28.1341 93.1559C27.5968 92.2201 27.5613 91.0863 27.5464 90.0066C27.4625 84.1414 27.5501 78.2744 27.8132 72.4148" fill="white"/>
<path d="M66.4717 71.7163C63.3355 73.4982 60.1974 75.2783 57.0612 77.0603C55.6191 77.8803 54.0743 78.8124 53.4717 80.3608C52.9437 81.7188 53.2665 83.2374 53.4531 84.6813C53.6396 86.127 53.6191 87.7689 52.6079 88.8168C51.8393 89.6106 50.5221 90.072 50.4102 91.1722C50.3299 91.9604 50.9493 92.6273 51.5296 93.1671C53.6639 95.1508 56.2422 97.155 59.1396 96.8804C60.7926 96.7235 62.2739 95.8344 63.6918 94.9677C64.6116 94.4055 65.5687 93.8059 66.1041 92.8701C66.6414 91.9343 66.6769 90.8005 66.6918 89.7208C66.7758 83.8557 66.6881 77.9886 66.425 72.1291" fill="white"/>
<path d="M69.0612 82.989C69.0612 87.0871 69.0649 91.1834 69.05 95.2815C69.05 95.4571 68.9175 95.7149 68.7702 95.7952C66.2291 97.198 63.6657 98.5615 61.1265 99.9699C56.5389 102.516 51.9698 105.09 47.3766 107.625C47.1676 107.74 46.759 107.671 46.524 107.54C44.2665 106.278 42.0277 104.981 39.7796 103.702C35.0053 100.984 30.233 98.2645 25.4419 95.5729C25.0072 95.3282 25.0315 95.0238 25.0315 94.6595C25.0315 88.5366 25.0315 82.4118 25.0315 76.2888C25.0315 74.9309 25.1099 73.5673 25.011 72.2168C24.9028 70.7487 25.6024 69.854 26.7647 69.1666C30.1583 67.1623 33.552 65.1562 36.9419 63.1464C40.3132 61.1496 43.6844 59.1566 47.0426 57.1392C47.4736 56.8796 47.7497 57.0234 48.1079 57.242C54.4176 61.0842 60.7329 64.9171 67.0481 68.7538C67.0911 68.7799 67.1302 68.8135 67.175 68.8285C68.8131 69.3403 69.0985 70.5301 69.0575 72.101C68.9623 75.7285 69.0276 79.3596 69.0276 82.989C69.0425 82.989 69.0519 82.989 69.0612 82.989ZM65.2814 75.2354C64.8467 75.3979 64.5202 75.4894 64.2198 75.6369C61.7441 76.8436 59.2683 78.0503 56.8112 79.2961C56.6023 79.4026 56.4325 79.793 56.425 80.0564C56.3877 81.4386 56.4213 82.8208 56.3915 84.2031C56.3877 84.4086 56.1881 84.784 56.0687 84.7877C54.7739 84.8307 53.4773 84.8139 52.2609 84.8139C52.2609 82.4846 52.2478 80.245 52.2814 78.0036C52.2851 77.7738 52.5202 77.4675 52.7348 77.3349C55.1471 75.8499 57.5799 74.3967 59.9978 72.9229C60.9754 72.3271 61.9325 71.6994 62.9773 71.0382C60.9922 69.9193 59.1359 68.8584 57.2553 67.8385C57.0333 67.719 56.6191 67.7283 56.4027 67.8591C53.6228 69.5476 50.8523 71.2511 48.1098 72.9939C47.4699 73.4011 46.9792 73.3731 46.3654 72.9696C43.7329 71.2343 41.0818 69.5271 38.4214 67.8366C38.2572 67.732 37.9046 67.7769 37.718 67.8871C35.9699 68.8976 34.2386 69.938 32.5035 70.9728C32.371 71.0531 32.2516 71.1559 32.0595 71.296C32.3878 71.5239 32.6434 71.7106 32.9065 71.8862C35.8822 73.8643 38.8654 75.8293 41.8206 77.8373C42.0818 78.0148 42.287 78.4649 42.2926 78.7937C42.3318 80.6186 42.302 82.4454 42.2908 84.2722C42.2889 84.4366 42.2423 84.6009 42.2143 84.7803C40.9755 84.7803 39.7777 84.7803 38.5389 84.7803C38.5389 83.7212 38.4699 82.7088 38.5576 81.7113C38.6565 80.5943 38.2255 79.9406 37.2367 79.4418C35.1714 78.3977 33.1583 77.2508 31.1192 76.1562C30.5184 75.8349 29.9009 75.5454 29.2348 75.2148C29.2069 75.3997 29.1826 75.4913 29.1807 75.5809C29.1789 81.2331 29.1714 86.8872 29.1975 92.5395C29.1994 92.7786 29.4438 93.1148 29.6677 93.2399C31.5874 94.2972 33.5389 95.2946 35.4568 96.3574C36.0538 96.6881 36.524 96.6507 37.0893 96.3089C38.7759 95.2909 40.4829 94.3065 42.1956 93.3315C42.565 93.1222 42.815 92.9355 42.8094 92.4461C42.8057 91.9698 42.6695 91.6989 42.2423 91.4524C41.2553 90.8845 40.3113 90.2401 39.3505 89.6274C39.371 89.577 39.3897 89.5284 39.4102 89.478C44.6602 89.478 49.912 89.478 55.3579 89.478C55.0034 89.7078 54.8094 89.8366 54.6135 89.9599C53.7777 90.4811 52.9288 90.9817 52.1098 91.5289C51.4195 91.9903 51.4493 92.8495 52.1452 93.2549C53.996 94.3326 55.8392 95.4272 57.718 96.4583C58.0239 96.6264 58.565 96.6526 58.8653 96.4938C60.7609 95.4982 62.6116 94.4186 64.4959 93.4006C65.0929 93.0774 65.2963 92.6646 65.2926 91.9828C65.2627 87.7128 65.2776 83.441 65.2776 79.171C65.2814 77.912 65.2814 76.6549 65.2814 75.2354ZM54.0613 99.29C54.009 99.2004 53.9866 99.1163 53.9344 99.079C52.2702 97.8966 50.6751 96.5891 48.9008 95.6047C48.1713 95.2012 46.8952 95.1695 46.149 95.5374C44.2049 96.4994 42.4139 97.7752 40.5221 98.9519C40.7031 99.0902 40.8094 99.1929 40.9344 99.2657C43.0128 100.484 45.0874 101.707 47.1825 102.895C47.3766 103.005 47.7572 102.962 47.968 102.843C49.9904 101.687 51.996 100.5 54.0613 99.29ZM52.0631 65.0236C50.3542 64.0523 48.7777 63.1464 47.1863 62.2722C47.0445 62.1938 46.7572 62.2685 46.593 62.3675C45.0314 63.2921 43.4829 64.2354 41.7367 65.2907C43.5874 66.2751 45.2852 67.1978 47.0072 68.0683C47.2105 68.171 47.6116 68.072 47.8299 67.9263C49.2031 67.0148 50.5501 66.0678 52.0631 65.0236Z" fill="black"/>
<path d="M238.434 96.4219C235.539 96.4219 232.335 95.3797 229.788 93.3725L231.872 90.2072C234.072 91.867 236.466 92.7163 238.55 92.7163C240.557 92.7163 241.715 91.867 241.715 90.516V90.4388C241.715 88.8562 239.554 88.3158 237.16 87.5824C234.15 86.7331 230.791 85.4979 230.791 81.5992V81.522C230.791 77.662 233.995 75.3073 238.048 75.3073C240.596 75.3073 243.375 76.1951 245.537 77.6234L243.684 80.943C241.715 79.7464 239.631 79.013 237.932 79.013C236.118 79.013 235.076 79.8622 235.076 81.0588V81.136C235.076 82.6029 237.276 83.2205 239.669 83.9925C242.642 84.9189 246 86.2699 246 89.937V90.0142C246 94.2989 242.68 96.4219 238.434 96.4219Z" fill="black"/>
<path d="M219.098 96.4605C215.74 96.4605 213.617 94.7621 212.189 92.8707V96.0359H207.518V67.8574H212.189V79.0516C213.694 76.9285 215.817 75.2301 219.098 75.2301C223.923 75.2301 228.594 79.0516 228.594 85.8067V85.8839C228.594 92.6391 223.962 96.4605 219.098 96.4605ZM218.018 92.4074C221.221 92.4074 223.846 89.8984 223.846 85.8839V85.8067C223.846 81.8694 221.183 79.2832 218.018 79.2832C214.852 79.2832 212.073 81.908 212.073 85.8067V85.8839C212.073 89.8212 214.852 92.4074 218.018 92.4074Z" fill="black"/>
<path d="M203.893 96.0359H199.261V93.5268C197.871 95.1867 195.748 96.4605 192.66 96.4605C188.8 96.4605 185.403 94.2603 185.403 90.1686V90.0914C185.403 85.5751 188.916 83.4134 193.664 83.4134C196.134 83.4134 197.717 83.7609 199.299 84.2627V83.8767C199.299 81.0588 197.524 79.5148 194.281 79.5148C192.004 79.5148 190.305 80.0166 188.453 80.7886L187.179 77.0443C189.418 76.0407 191.618 75.3459 194.938 75.3459C200.959 75.3459 203.893 78.5112 203.893 83.9539V96.0359ZM199.377 88.6632V87.5051C198.18 87.0419 196.52 86.6945 194.706 86.6945C191.772 86.6945 190.035 87.8911 190.035 89.8598V89.937C190.035 91.867 191.772 92.9478 193.973 92.9478C197.061 92.9478 199.377 91.2108 199.377 88.6632Z" fill="black"/>
<path d="M165.364 96.0359V69.0154H170.112V91.7126H184.317V96.0359H165.364Z" fill="black"/>
<path d="M157.844 96.0359H153.212V93.5268C151.823 95.1867 149.7 96.4605 146.612 96.4605C142.751 96.4605 139.355 94.2603 139.355 90.1686V90.0914C139.355 85.5751 142.867 83.4134 147.615 83.4134C150.086 83.4134 151.668 83.7609 153.251 84.2627V83.8767C153.251 81.0588 151.475 79.5148 148.233 79.5148C145.955 79.5148 144.257 80.0166 142.404 80.7886L141.13 77.0443C143.369 76.0407 145.569 75.3459 148.889 75.3459C154.911 75.3459 157.844 78.5112 157.844 83.9539V96.0359ZM153.328 88.6632V87.5051C152.131 87.0419 150.472 86.6945 148.657 86.6945C145.724 86.6945 143.987 87.8911 143.987 89.8598V89.937C143.987 91.867 145.724 92.9478 147.924 92.9478C151.012 92.9478 153.328 91.2108 153.328 88.6632Z" fill="black"/>
<path d="M127.709 96.0359V75.6547H132.38V80.2482C133.653 77.1988 136.008 75.1143 139.598 75.2687V80.2096H139.328C135.236 80.2096 132.38 82.8731 132.38 88.2772V96.0359H127.709Z" fill="black"/>
<path d="M113.958 96.4991C107.744 96.4991 103.15 91.7512 103.15 85.9611V85.8839C103.15 80.0552 107.782 75.2301 114.035 75.2301C120.289 75.2301 124.882 79.978 124.882 85.8067V85.8839C124.882 91.674 120.25 96.4991 113.958 96.4991ZM114.035 92.446C117.818 92.446 120.212 89.4738 120.212 85.9611V85.8839C120.212 82.2941 117.625 79.3218 113.958 79.3218C110.214 79.3218 107.821 82.2554 107.821 85.8067V85.8839C107.821 89.4352 110.407 92.446 114.035 92.446Z" fill="black"/>
<path d="M92.7596 96.0359V73.4159H84.1902V69.0154H106.115V73.4159H97.5461V96.0359H92.7596Z" fill="black"/>
</svg>
